<?xml version="1.0" encoding="UTF-8"?> <svg xmlns="http://www.w3.org/2000/svg" width="109" height="61" viewBox="0 0 109 61" fill="none"><g clip-path="url(#clip0_2555_1928)"><path fill-rule="evenodd" clip-rule="evenodd" d="M19.6514 6.28346C17.2457 9.1528 14.7937 10.3366 14.7937 10.3366C14.7937 10.3366 14.6159 7.52003 17.1775 4.46314C19.7408 1.40544 22.3795 0 22.3795 0C22.3795 0 22.058 3.41251 19.6514 6.28346ZM11.6066 13.6754C11.6066 13.6754 13.228 11.4897 14.0262 7.82956C14.8235 4.16941 13.5236 0.998044 13.5236 0.998044C13.5236 0.998044 11.8388 3.46872 10.9895 7.36676C10.1403 11.2648 11.6066 13.6754 11.6066 13.6754ZM9.97892 13.9459C9.7865 17.6873 8.54182 20.1076 8.54182 20.1076C8.54182 20.1076 6.70201 17.9673 6.90742 13.9825C7.11283 9.99834 8.37294 7.28733 8.37294 7.28733C8.37294 7.28733 10.1713 10.2046 9.97892 13.9459ZM7.41451 25.4536C7.41451 25.4536 7.64835 22.7419 6.40773 19.2076C5.1663 15.6724 2.39684 13.6549 2.39684 13.6549C2.39684 13.6549 2.25962 16.6419 3.58061 20.4052C4.90161 24.1709 7.41451 25.4536 7.41451 25.4536ZM6.74276 27.512C8.4478 30.8474 8.58095 33.5665 8.58095 33.5665C8.58095 33.5665 5.91866 32.6327 4.1032 29.0799C2.28774 25.5277 2.02143 22.5495 2.02143 22.5495C2.02143 22.5495 5.03772 24.1767 6.74276 27.512ZM13.9641 34.8422C14.2386 38.9578 13.1896 41.7663 13.1896 41.7663C13.1896 41.7663 10.9023 39.6626 10.61 35.2807C10.3186 30.8963 11.3465 27.7671 11.3465 27.7671C11.3465 27.7671 13.6904 30.7258 13.9641 34.8422ZM22.7932 51.1493C22.7932 51.1493 22.5602 48.0072 20.4906 44.1976C18.4211 40.3864 14.8827 38.5921 14.8827 38.5921C14.8827 38.5921 15.2765 42.0305 17.4809 46.0886C19.6852 50.1457 22.7932 51.1493 22.7932 51.1493ZM34.7783 55.9691C34.7783 55.9691 35.2021 53.0584 30.5385 49.8456C25.874 46.6336 23.189 46.5443 23.189 46.5443C23.189 46.5443 24.73 50.5106 28.4834 52.8327C31.551 54.7301 34.7783 55.9691 34.7783 55.9691ZM34.7773 56.4805C34.7773 56.4805 33.8436 58.7513 28.212 59.3513C22.5806 59.9521 20.1781 58.7513 20.1781 58.7513C20.1781 58.7513 23.9324 55.8242 27.5366 55.6733C31.1407 55.5231 34.7773 56.4805 34.7773 56.4805ZM20.8935 52.6121C25.2299 52.6121 28.1018 53.9079 28.1018 53.9079C28.1018 53.9079 25.7367 56.1602 21.1192 56.1594C16.5011 56.1594 13.2915 54.8652 13.2915 54.8652C13.2915 54.8652 16.5571 52.6121 20.8935 52.6121ZM13.9232 47.8101C18.1387 48.8249 20.6272 50.7573 20.6272 50.7573C20.6272 50.7573 17.8009 52.3934 13.3126 51.3127C8.82268 50.2312 6.00532 48.2193 6.00532 48.2193C6.00532 48.2193 9.70768 46.7943 13.9232 47.8101ZM16.8943 47.4075C16.8943 47.4075 15.3451 44.6647 11.849 42.099C8.35287 39.5334 4.38825 39.4164 4.38825 39.4164C4.38825 39.4164 6.21021 42.3597 9.93206 45.0926C13.6547 47.8248 16.8943 47.4075 16.8943 47.4075ZM10.2491 39.1049C10.2491 39.1049 9.17089 36.6058 6.40468 34.0808C3.63764 31.5549 0.242188 31.0897 0.242188 31.0897C0.242188 31.0897 1.53558 33.7861 4.48204 36.4752C7.42769 39.1643 10.2491 39.1049 10.2491 39.1049ZM12.2623 24.8357C10.7472 28.262 8.71982 30.0775 8.71982 30.0775C8.71982 30.0775 7.76663 27.4216 9.38072 23.7729C10.994 20.1249 13.1399 18.0415 13.1399 18.0415C13.1399 18.0415 13.7773 21.4094 12.2623 24.8357ZM10.9623 17.831C10.9623 17.831 13.5531 16.9972 16.3323 14.485C19.1108 11.973 19.8991 8.63764 19.8991 8.63764C19.8991 8.63764 17.0914 9.66716 14.1328 12.3424C11.1726 15.0177 10.9623 17.831 10.9623 17.831Z" fill="#262626"></path><path fill-rule="evenodd" clip-rule="evenodd" d="M88.217 6.28346C90.6227 9.1528 93.0739 10.3366 93.0739 10.3366C93.0739 10.3366 93.2534 7.52003 90.6909 4.46314C88.1286 1.40544 85.4881 0 85.4881 0C85.4881 0 85.8105 3.41251 88.217 6.28346ZM96.2604 13.6754C96.2604 13.6754 94.639 11.4897 93.8416 7.82952C93.0444 4.16938 94.3435 0.998004 94.3435 0.998004C94.3435 0.998004 96.0274 3.46869 96.8775 7.36672C97.7283 11.2648 96.2604 13.6754 96.2604 13.6754ZM97.8913 13.9459C98.0846 17.6873 99.3293 20.1076 99.3293 20.1076C99.3293 20.1076 101.168 17.9673 100.964 13.9825C100.758 9.99834 99.4973 7.28733 99.4973 7.28733C99.4973 7.28733 97.6997 10.2046 97.8913 13.9459ZM100.452 25.4536C100.452 25.4536 100.217 22.7419 101.458 19.2076C102.698 15.6724 105.469 13.6549 105.469 13.6549C105.469 13.6549 105.607 16.6419 104.284 20.4052C102.964 24.1709 100.452 25.4536 100.452 25.4536ZM101.123 27.512C99.4172 30.8474 99.2849 33.5665 99.2849 33.5665C99.2849 33.5665 101.948 32.6327 103.763 29.0799C105.579 25.5277 105.844 22.5495 105.844 22.5495C105.844 22.5495 102.829 24.1767 101.123 27.512ZM93.901 34.8422C93.6275 38.9578 94.6765 41.7663 94.6765 41.7663C94.6765 41.7663 96.9637 39.6626 97.2551 35.2807C97.5474 30.8963 96.5195 27.7671 96.5195 27.7671C96.5195 27.7671 94.1755 30.7258 93.901 34.8422ZM85.0768 51.1493C85.0768 51.1493 85.3099 48.0071 87.3786 44.1975C89.4483 40.3864 92.9865 38.5921 92.9865 38.5921C92.9865 38.5921 92.5928 42.0305 90.39 46.0885C88.1848 50.1457 85.0768 51.1493 85.0768 51.1493ZM73.0882 55.9691C73.0882 55.9691 72.6643 53.0584 77.328 49.8456C81.9925 46.6336 84.6775 46.5443 84.6775 46.5443C84.6775 46.5443 83.1373 50.5106 79.3829 52.8327C76.3147 54.7301 73.0882 55.9691 73.0882 55.9691ZM73.0899 56.4804C73.0899 56.4804 74.0236 58.7513 79.655 59.3513C85.2866 59.9521 87.689 58.7513 87.689 58.7513C87.689 58.7513 83.9348 55.8242 80.3306 55.6733C76.7265 55.5231 73.0899 56.4804 73.0899 56.4804ZM86.9724 52.6121C82.6375 52.6121 79.7649 53.9079 79.7649 53.9079C79.7649 53.9079 82.1301 56.1602 86.7475 56.1594C91.3657 56.1594 94.5761 54.8652 94.5761 54.8652C94.5761 54.8652 91.3097 52.6121 86.9724 52.6121ZM93.9456 47.8101C89.7293 48.8249 87.2415 50.7573 87.2415 50.7573C87.2415 50.7573 90.0678 52.3934 94.557 51.3127C99.046 50.2312 101.863 48.2193 101.863 48.2193C101.863 48.2193 98.1611 46.7943 93.9456 47.8101ZM90.9716 47.4073C90.9716 47.4073 92.5216 44.6647 96.0169 42.099C99.5138 39.5333 103.478 39.4164 103.478 39.4164C103.478 39.4164 101.657 42.3596 97.9346 45.0926C94.212 47.8247 90.9716 47.4073 90.9716 47.4073ZM97.6161 39.1049C97.6161 39.1049 98.6944 36.6058 101.461 34.0807C104.228 31.5549 107.624 31.0896 107.624 31.0896C107.624 31.0896 106.329 33.7861 103.383 36.4752C100.437 39.1642 97.6161 39.1049 97.6161 39.1049ZM95.6019 24.8356C97.117 28.262 99.1459 30.0774 99.1459 30.0774C99.1459 30.0774 100.098 27.4216 98.4842 23.7729C96.8701 20.1249 94.7243 18.0415 94.7243 18.0415C94.7243 18.0415 94.0869 21.4094 95.6019 24.8356ZM96.9047 17.831C96.9047 17.831 94.3138 16.9972 91.5354 14.485C88.7554 11.973 87.9678 8.63764 87.9678 8.63764C87.9678 8.63764 90.7746 9.66716 93.7349 12.3424C96.6936 15.0177 96.9047 17.831 96.9047 17.831Z" fill="#262626"></path><path d="M60.7648 10.1406H51.8673L42.0781 16.2273V24.5239L50.9562 19.0962H51.1889V49.84H60.7648V10.1406Z" fill="#262626"></path><path d="M36.0396 24.3259H37.1016L37.4315 22.3234H38.5162L38.6944 21.2615H37.606L37.8715 19.623H38.9675L39.1419 18.5611H38.0459L38.3758 16.5586H37.314L36.984 18.5611H35.3153L35.6452 16.5586H34.5832L34.2533 18.5611H33.1648L32.9904 19.623H34.0789L33.8133 21.2615H32.7173L32.5391 22.3234H33.6389L33.309 24.3259H34.3708L34.7008 22.3234H36.3695L36.0396 24.3259ZM34.8753 21.2615L35.1407 19.623H36.8095L36.5441 21.2615H34.8753Z" fill="#262626"></path></g><defs><clipPath id="clip0_2555_1928"><rect width="107.987" height="60.52" fill="white" transform="translate(0.242188)"></rect></clipPath></defs></svg> 