<?xml version="1.0" encoding="UTF-8"?> <svg xmlns="http://www.w3.org/2000/svg" width="102" height="18" viewBox="0 0 102 18" fill="none"><path d="M8.894 13.2642L3.52468 17.142L5.64116 10.8352L0.257635 6.94318H6.84854L8.894 0.636363L10.9395 6.94318H17.5304L12.1468 10.8352L14.2633 17.142L8.894 13.2642ZM29.812 13.2642L24.4426 17.142L26.5591 10.8352L21.1756 6.94318H27.7665L29.812 0.636363L31.8574 6.94318H38.4483L33.0648 10.8352L35.1813 17.142L29.812 13.2642ZM50.7299 13.2642L45.3606 17.142L47.4771 10.8352L42.0936 6.94318H48.6845L50.7299 0.636363L52.7754 6.94318H59.3663L53.9828 10.8352L56.0993 17.142L50.7299 13.2642ZM71.6479 13.2642L66.2786 17.142L68.3951 10.8352L63.0115 6.94318H69.6025L71.6479 0.636363L73.6934 6.94318H80.2843L74.9007 10.8352L77.0172 17.142L71.6479 13.2642ZM92.5659 13.2642L87.1966 17.142L89.313 10.8352L83.9295 6.94318H90.5204L92.5659 0.636363L94.6113 6.94318H101.202L95.8187 10.8352L97.9352 17.142L92.5659 13.2642Z" fill="url(#paint0_linear_2555_1945)"></path><defs><linearGradient id="paint0_linear_2555_1945" x1="-1.76562" y1="9.5" x2="103.234" y2="9.5" gradientUnits="userSpaceOnUse"><stop offset="0.922539" stop-color="#00B87A"></stop><stop offset="0.923643" stop-color="#82D4B7"></stop></linearGradient></defs></svg> 